<?xml version="1.0" encoding="iso-8859-1"?>
<!-- Uploaded to: SVG Repo, www.svgrepo.com, Generator: SVG Repo Mixer Tools -->
<!DOCTYPE svg PUBLIC "-//W3C//DTD SVG 1.1//EN" "http://www.w3.org/Graphics/SVG/1.1/DTD/svg11.dtd">
<svg fill="#000000" height="800px" width="800px" version="1.1" id="Capa_1" xmlns="http://www.w3.org/2000/svg" xmlns:xlink="http://www.w3.org/1999/xlink" 
	 viewBox="0 0 297.69 297.69" xml:space="preserve">
<g>
	<path d="M67.93,97.818c3.457,0,6.844-1.406,9.29-3.853c2.457-2.446,3.854-5.833,3.854-9.291s-1.396-6.854-3.854-9.301
		c-2.437-2.438-5.823-3.842-9.29-3.842c-3.459,0-6.846,1.404-9.292,3.842c-2.446,2.446-3.852,5.833-3.852,9.301
		c0,3.458,1.405,6.845,3.852,9.291C61.085,96.412,64.471,97.818,67.93,97.818z"/>
	<path d="M272.539,47.791c0,5.489-4.395,9.945-9.815,9.945c-5.425,0-10.191-6.94-10.191-12.434c0,4.119-3.669,7.461-7.736,7.461
		c-4.065,0-7.733-3.342-7.733-7.461c0,5.493-4.769,12.434-10.188,12.434c-5.426,0-9.818-4.456-9.818-9.945
		c0,0-14.727-0.154-14.727,19.735c0,0,19.637,0,19.637,14.919c0,0,17.928,4.82,22.831,14.767
		c4.908-9.946,22.835-14.767,22.835-14.767c0-14.919,19.635-14.919,19.635-14.919C287.265,47.637,272.539,47.791,272.539,47.791z"/>
	<path d="M130.342,37.143c0,0,17.927,4.82,22.834,14.767c4.905-9.946,22.832-14.767,22.832-14.767
		c0-14.918,19.636-14.918,19.636-14.918c0-19.89-14.729-19.737-14.729-19.737c0,5.488-4.394,9.946-9.814,9.946
		c-5.427,0-10.193-6.941-10.193-12.434c0,4.117-3.667,7.46-7.732,7.46c-4.068,0-7.737-3.343-7.737-7.46
		c0,5.493-4.768,12.434-10.189,12.434c-5.424,0-9.817-4.458-9.817-9.946c0,0-14.728-0.152-14.728,19.737
		C110.704,22.225,130.342,22.225,130.342,37.143z"/>
	<path d="M236.319,297.69c7.259,0,13.167-6.575,13.167-13.834V145.023l5.957,1.667c6.028,0,11.367-4.268,12.832-10.115
		c1.466-5.848-1.194-12.025-6.51-14.868l-84.708-45.345c-3.853-2.061-8.226-2.091-12.086-0.052l-48.486,25.725V83.202
		c4-1.141,7.299-4.263,8.717-8.466c1.805-5.343-0.119-11.24-4.603-14.658l-44.639-33.98c-4.706-3.588-11.26-3.588-15.965,0
		l-44.592,33.98c-4.484,3.418-6.049,9.315-4.245,14.658c1.765,5.227,6.328,8.781,12.328,8.933v200.188
		c0,7.259,5.392,13.834,12.65,13.834H236.319z M89.486,69.69v46.23l-10.619,5.672c-5.34,2.821-8.011,9.088-6.558,14.951
		c1.453,5.863,6.775,10.146,12.816,10.146h4.361v124h-40v-203v-0.028l18.249-14.53L89.486,69.75V69.69z M223.486,130.69v140h-41
		v-43.956c0-7.26-5.741-13.143-12.999-13.143c-7.26,0-13.001,5.884-13.001,13.143v43.956h-40v-139v0.156l54.388-29.011
		l52.612,28.081V130.69z"/>
	<path d="M186.779,176.69h16.176c7.259,0,13.144-5.741,13.144-13s-5.885-13-13.144-13h-16.176c-7.259,0-13.144,5.741-13.144,13
		S179.52,176.69,186.779,176.69z"/>
</g>
</svg>