<?xml version="1.0" encoding="iso-8859-1"?>
<!-- Uploaded to: SVG Repo, www.svgrepo.com, Generator: SVG Repo Mixer Tools -->
<!DOCTYPE svg PUBLIC "-//W3C//DTD SVG 1.1//EN" "http://www.w3.org/Graphics/SVG/1.1/DTD/svg11.dtd">
<svg fill="#fff" height="800px" width="800px" version="1.1" id="Capa_1" xmlns="http://www.w3.org/2000/svg" xmlns:xlink="http://www.w3.org/1999/xlink" 
	 viewBox="0 0 297 297" xml:space="preserve">
<path d="M295.151,107.385c-2.62-3.896-6.492-6.094-11.106-5.729c-2.64-0.471-19.4-4.311-59.006-30.715
	c-16.733-11.154-32.588-16.813-47.123-16.813c-12.506,0-22.369,4.246-29.416,9.338c-7.047-5.09-16.91-9.338-29.414-9.338
	c-14.535,0-30.39,5.658-47.123,16.813c-39.606,26.404-56.366,30.244-59.006,30.715c-4.613-0.352-8.485,1.832-11.106,5.729
	c-2.685,3.994-2.247,9.184,0.033,13.422c1.143,2.121,15.256,27.863,39.993,53.336l11.588,58.287
	c1.12,5.631,5.809,9.857,11.528,10.387c0.402,0.037,0.802,0.055,1.199,0.055c5.26,0,10.055-3.197,12.038-8.154l9.902-24.756
	c17.793,9.588,38.014,15.947,60.368,15.947s42.577-6.359,60.368-15.947l9.903,24.756c1.982,4.957,6.776,8.154,12.037,8.154
	c0.396,0,0.798-0.018,1.199-0.055c5.719-0.529,10.408-4.756,11.528-10.387l11.588-58.291c24.736-25.473,38.852-51.211,39.993-53.332
	C297.398,116.569,297.836,111.379,295.151,107.385z M86.352,92.526c12.396-8.264,23.41-12.455,32.733-12.455
	c11.962,0,17.485,7.195,18.377,8.484c2.294,4.072,6.357,6.598,11.04,6.596c4.683,0,8.745-2.525,11.038-6.6
	c0.893-1.287,6.413-8.48,18.375-8.48c9.324,0,20.337,4.191,32.733,12.455c20.616,13.746,35.97,22.127,47.211,27.24
	c-11.349,4.561-64.331,11.236-109.359,15.057c-45.066-3.822-98.1-10.508-109.364-15.055
	C50.378,114.652,65.735,106.272,86.352,92.526z M63.927,152.006c5.338,0.816,11.438,1.676,18.418,2.572l-11.962,29.906
	L63.927,152.006z M148.501,161.451c0.65,0,18.416-1.461,39.47-3.736l11.172,27.93c-15.089,8.592-32.102,14.322-50.643,14.322
	c-18.514,0-35.523-5.756-50.622-14.373l11.151-27.879C130.084,159.99,147.87,161.451,148.501,161.451z M226.618,184.485
	l-11.963-29.906c6.98-0.896,13.08-1.756,18.418-2.572L226.618,184.485z"/>
</svg>